# xmcd
#
# Track frame offsets: 
#        150
#        12226
#        24454
#        41930
#        60606
#        75234
#        97286
#        109230
#        123032
#        136309
#        150813
#        169863
#
# Disc length: 2431 seconds
#
# Revision: 0
# Processed by: cddbd v1.5.2PL0 Copyright (c) Steve Scherf et al.
# Submitted via: ExactAudioCopy v0.95b4
#
DISCID=8e097d0c
DTITLE=Ulrich Roski - Immer in der Mitte
DYEAR=1984
DGENRE=Ballad
TTITLE0=Polytoxikomanie
TTITLE1=So möcht' ich sein
TTITLE2=Guten Flug
TTITLE3=Lassen Sie es bleiben
TTITLE4=Immer rin mit der Ramme
TTITLE5=Es kann der Frömmste nicht in Frieden leben
TTITLE6=Immer in der Mitte
TTITLE7=Sowas gibt es nur im Leben
TTITLE8=Bei Ruth
TTITLE9=Du redest nicht mit mir
TTITLE10=Richard
TTITLE11=Fundstück
EXTD=
EXTT0=
EXTT1=
EXTT2=
EXTT3=
EXTT4=
EXTT5=
EXTT6=
EXTT7=
EXTT8=
EXTT9=
EXTT10=
EXTT11=
PLAYORDER=
